<svg width="1094" height="1155" viewBox="0 0 1094 1155" fill="none" xmlns="http://www.w3.org/2000/svg">
<g opacity="0.3">
<path d="M686.642 401.474C646.933 384.96 612.68 463.184 655.245 478.883C665.468 482.653 675.758 478.278 683.808 471.884C702.788 456.809 716.141 413.742 686.642 401.474Z" fill="#ADD9CF"/>
<path d="M740.517 456.788C722.629 451.133 703.869 472.877 700.009 488.443C697.523 498.474 699.651 510.733 710.96 514.07C728.811 519.339 747.462 498.295 751.847 482.769C754.788 472.358 751.744 460.337 740.517 456.788Z" fill="#ADD9CF"/>
<path d="M774.29 517.042C761.792 512.942 746.28 519.201 738.13 529.048C729.308 539.707 728.829 552.988 743.844 558.113C757.677 562.834 773.798 555.312 782.489 544.333C791.008 533.573 787.361 521.33 774.29 517.042Z" fill="#ADD9CF"/>
<path d="M787.797 575.157C776.941 570.867 764.118 573.913 755.284 581.186C744.767 589.846 748.782 601.926 760.444 606.806C770.153 610.867 783.265 609.646 791.599 603.071C803.159 593.95 801.497 580.572 787.797 575.157Z" fill="#ADD9CF"/>
<path d="M665.203 494.611C658.872 491.693 651.644 489.485 644.671 489.018C639.189 488.651 633.629 489.287 628.333 490.737C624.045 491.912 620.009 493.71 616.449 496.392C604.048 505.734 598.909 520.316 597.165 535.289C595.122 552.838 595.892 572.861 579.961 584.368C552.942 603.881 515.788 585.081 486.318 597.49C477.784 601.082 470.794 606.971 464.684 613.795C427.899 654.881 448.637 717.04 494.866 740.872C531.898 759.964 569.807 739.183 603.241 722.837C637.792 705.946 681.322 691.316 706.293 660.427C715.504 649.034 723.407 636.528 726.251 622.001C729.751 604.119 726.487 586.745 720.989 569.67C711.472 540.12 694.866 508.281 665.203 494.611Z" fill="#ADD9CF"/>
<path d="M775.533 627.683C768.422 624.821 759.877 624.792 753.058 628.513C743.667 633.635 745.079 644.22 752.809 650.209C755.084 651.972 757.81 653.184 760.478 654.224C768.621 657.401 779.047 657.904 785.832 651.413C795.306 642.348 784.373 631.243 775.533 627.683Z" fill="#ADD9CF"/>
<path d="M319.549 643.413C302.573 638.47 282.632 654.739 276.031 669.385C271.195 680.11 271.743 694.061 284.764 698.188C302.821 703.912 321.564 688.62 329.548 673.613C335.822 661.816 333.82 647.568 319.549 643.413Z" fill="#ADD9CF"/>
<path d="M255.967 609.527C236.742 604.897 223.489 634.416 225.127 649.449C225.982 657.294 230.028 665.245 238.279 667.18C256.862 671.54 270.802 643.456 269.749 628.41C269.177 620.257 264.509 611.584 255.967 609.527Z" fill="#ADD9CF"/>
<path d="M374.947 694.042C355.808 686.329 331.675 696.43 320.186 712.461C307.465 730.21 307.207 751.37 330.27 760.477C350.448 768.442 375.843 755.185 386.795 738.058C397.492 721.331 394.501 701.923 374.947 694.042Z" fill="#ADD9CF"/>
<path d="M195.5 598.695C188.099 596.992 182.136 602.41 178.416 608.156C170.906 619.758 169.043 646.927 186.696 651.051C194.163 652.795 199.96 647.271 203.808 641.612C211.86 629.775 213.645 602.873 195.5 598.695Z" fill="#ADD9CF"/>
<path d="M139.318 611.808C131.573 610.205 125.441 619.452 124.09 626.058C121.774 637.367 128.707 653.464 141.16 655.894C148.788 657.382 154.098 649.225 155.5 642.77C157.944 631.508 152.037 614.441 139.318 611.808Z" fill="#ADD9CF"/>
<path d="M253.934 694.84C239.698 687.526 225.137 682.228 209.629 678.298C198.164 675.394 185.83 673.643 174 674.324C112.242 677.873 86.7511 748.865 65.859 796.603C48.4371 836.412 22.0604 880.231 47.4611 922.861C51.5784 929.773 56.7198 935.726 62.5878 941.186C70.5768 948.623 78.9414 953.941 88.7252 958.744C130.451 979.228 190.977 958.281 198.331 908.375C202.143 882.504 188.244 850.11 203.811 826.664C220.677 801.261 256.52 811.46 280.045 797.885C285.285 794.862 289.583 790.971 293.143 786.089C318.82 750.868 285.432 711.022 253.934 694.84Z" fill="#ADD9CF"/>
</g>
</svg>
